<svg xmlns="http://www.w3.org/2000/svg" viewBox="0 0 310 200" role="img" aria-labelledby="title desc">
  <title id="title">INNOVA-HUB</title>
  <desc id="desc">Red de nodos en colores violeta, celeste y verde.</desc>
  <defs>
    <linearGradient id="hub" x1="0" x2="1" y1="0" y2="1">
      <stop offset="0" stop-color="#b777ff"/>
      <stop offset=".46" stop-color="#34c7ff"/>
      <stop offset="1" stop-color="#28e69a"/>
    </linearGradient>
  </defs>
  <rect width="310" height="200" fill="none"/>
  <g stroke="url(#hub)" stroke-width="8" stroke-linecap="round">
    <path d="M48 110h70l37-56 57 54 44-31"/>
    <path d="M118 110l-18 58"/>
    <path d="M212 108l27 42"/>
    <path d="M118 110l51 41"/>
  </g>
  <g fill="url(#hub)">
    <circle cx="48" cy="110" r="30"/>
    <circle cx="118" cy="110" r="38"/>
    <circle cx="155" cy="54" r="36"/>
    <circle cx="212" cy="108" r="43"/>
    <circle cx="256" cy="77" r="25"/>
    <circle cx="100" cy="168" r="23"/>
    <circle cx="169" cy="151" r="18"/>
    <circle cx="239" cy="150" r="14"/>
    <circle cx="275" cy="42" r="13"/>
    <circle cx="72" cy="49" r="22"/>
    <circle cx="28" cy="160" r="17"/>
  </g>
</svg>
